<?xml version="1.0" encoding="iso-8859-1"?>
<!-- Generator: Adobe Illustrator 19.0.0, SVG Export Plug-In . SVG Version: 6.00 Build 0)  -->
<svg xmlns="http://www.w3.org/2000/svg" xmlns:xlink="http://www.w3.org/1999/xlink" version="1.1" id="Capa_1" x="0px" y="0px" viewBox="0 0 480.042 480.042" style="enable-background:new 0 0 480.042 480.042;" xml:space="preserve" width="512px" height="512px">
<g>
	<g>
		<path d="M477.085,176.333c-13.122-55.919-69.09-90.612-125.009-77.491C349.327,43.461,303.611-0.022,248.163,0    c-57.438,0.023-103.981,46.604-103.958,104.042c0,0.536,0,1.072,0,1.6c-5.265-1.074-10.626-1.61-16-1.6    c-36.146,0.078-67.776,24.318-77.248,59.2c-30.192,9.315-50.783,37.225-50.774,68.822c0.012,39.765,32.257,71.99,72.022,71.978    h304c2.968,0,5.848-0.088,8.672-0.344c4.956-0.432,9.875-1.22,14.718-2.357C455.514,288.22,490.207,232.251,477.085,176.333z     M383.477,287.754c-2.4,0.224-4.8,0.288-7.272,0.288h-304c-26.013-0.002-48.6-17.916-54.525-43.245    c-7.045-30.115,11.658-60.239,41.773-67.283c3.056-0.706,5.418-3.133,6.04-6.208c6.104-29.796,32.297-51.208,62.712-51.264    c7.487-0.049,14.919,1.288,21.92,3.944c1.263,0.488,2.63,0.647,3.972,0.463c4.377-0.602,7.438-4.638,6.836-9.015    c-0.503-3.776-0.746-7.583-0.728-11.392c0-48.601,39.399-88,88-88s88,39.399,88,88c0,1.72-0.072,3.44-0.152,5.168    c-0.046,1.039,0.112,2.076,0.463,3.054c1.493,4.158,6.075,6.319,10.233,4.826c9.453-3.375,19.419-5.083,29.456-5.048    c45.905-0.084,84.162,35.133,87.872,80.888C468.005,241.372,431.919,283.826,383.477,287.754z" fill="#006DF0"/>
	</g>
</g>
<g>
	<g>
		<path d="M265.098,357.168c-0.031-0.018-0.062-0.036-0.093-0.054l-8.8-5.072l8.8-5.072c3.82-2.215,5.124-7.106,2.912-10.928    c-2.209-3.826-7.102-5.137-10.928-2.928l-8.8,5.072v-10.144c0-4.418-3.582-8-8-8s-8,3.582-8,8v10.144l-8.8-5.072    c-3.841-2.183-8.725-0.84-10.908,3.002c-2.163,3.805-0.867,8.641,2.908,10.854l8.816,5.072l-8.8,5.072    c-3.841,2.183-5.185,7.067-3.002,10.908c2.183,3.841,7.067,5.185,10.908,3.002c0.031-0.018,0.062-0.036,0.093-0.054l8.8-5.072    v10.144c0,4.418,3.582,8,8,8s8-3.582,8-8v-10.144l8.8,5.072c3.811,2.235,8.713,0.957,10.948-2.854    C270.187,364.304,268.909,359.403,265.098,357.168z" fill="#006DF0"/>
	</g>
</g>
<g>
	<g>
		<path d="M393.005,357.114l-8.8-5.072l8.8-5.072c3.811-2.235,5.089-7.136,2.854-10.948c-2.214-3.775-7.05-5.071-10.854-2.908    l-8.8,5.072v-10.144c0-4.418-3.582-8-8-8s-8,3.582-8,8v10.144l-8.8-5.072c-3.841-2.183-8.725-0.84-10.908,3.002    c-2.163,3.805-0.867,8.641,2.908,10.854l8.8,5.072l-8.8,5.072c-3.841,2.183-5.185,7.067-3.002,10.908    c2.183,3.841,7.067,5.185,10.908,3.002c0.031-0.018,0.062-0.036,0.093-0.054l8.8-5.072v10.144c0,4.418,3.582,8,8,8s8-3.582,8-8    v-10.144l8.8,5.072c3.841,2.183,8.725,0.839,10.908-3.002C398.076,364.164,396.78,359.328,393.005,357.114z" fill="#006DF0"/>
	</g>
</g>
<g>
	<g>
		<path d="M201.098,453.168c-0.031-0.018-0.062-0.036-0.093-0.054l-8.8-5.072l8.8-5.072c3.82-2.215,5.124-7.106,2.912-10.928    c-2.209-3.826-7.102-5.137-10.928-2.928l-8.8,5.072v-10.144c0-4.418-3.582-8-8-8s-8,3.582-8,8v10.144l-8.8-5.072    c-3.841-2.183-8.725-0.84-10.908,3.002c-2.163,3.805-0.867,8.641,2.908,10.854l8.816,5.072l-8.8,5.072    c-3.841,2.183-5.185,7.067-3.002,10.908c2.183,3.841,7.067,5.185,10.908,3.002c0.031-0.018,0.062-0.036,0.093-0.054l8.8-5.072    v10.144c0,4.418,3.582,8,8,8s8-3.582,8-8v-10.144l8.8,5.072c3.811,2.235,8.713,0.957,10.948-2.854    C206.187,460.304,204.909,455.403,201.098,453.168z" fill="#006DF0"/>
	</g>
</g>
<g>
	<g>
		<path d="M137.098,357.168c-0.031-0.018-0.062-0.036-0.093-0.054l-8.8-5.072l8.8-5.072c3.82-2.215,5.124-7.106,2.912-10.928    c-2.209-3.826-7.102-5.137-10.928-2.928l-8.8,5.072v-10.144c0-4.418-3.582-8-8-8s-8,3.582-8,8v10.144l-8.8-5.072    c-3.841-2.183-8.725-0.84-10.908,3.002c-2.163,3.805-0.867,8.641,2.908,10.854l8.816,5.072l-8.8,5.072    c-3.841,2.183-5.185,7.067-3.002,10.908c2.183,3.841,7.067,5.185,10.908,3.002c0.031-0.018,0.062-0.036,0.093-0.054l8.8-5.072    v10.144c0,4.418,3.582,8,8,8s8-3.582,8-8v-10.144l8.8,5.072c3.811,2.235,8.713,0.957,10.948-2.854    C142.187,364.304,140.909,359.403,137.098,357.168z" fill="#006DF0"/>
	</g>
</g>
<g>
	<g>
		<path d="M329.098,453.168c-0.031-0.018-0.062-0.036-0.093-0.054l-8.8-5.072l8.8-5.072c3.82-2.215,5.124-7.106,2.912-10.928    c-2.209-3.826-7.102-5.137-10.928-2.928l-8.8,5.072v-10.144c0-4.418-3.582-8-8-8s-8,3.582-8,8v10.144l-8.8-5.072    c-3.841-2.183-8.725-0.84-10.908,3.002c-2.163,3.805-0.867,8.641,2.908,10.854l8.816,5.072l-8.8,5.072    c-3.841,2.183-5.185,7.067-3.002,10.908c2.183,3.841,7.067,5.185,10.908,3.002c0.031-0.018,0.062-0.036,0.093-0.054l8.8-5.072    v10.144c0,4.418,3.582,8,8,8s8-3.582,8-8v-10.144l8.8,5.072c3.811,2.235,8.713,0.957,10.948-2.854    C334.187,460.304,332.909,455.403,329.098,453.168z" fill="#006DF0"/>
	</g>
</g>
<g>
</g>
<g>
</g>
<g>
</g>
<g>
</g>
<g>
</g>
<g>
</g>
<g>
</g>
<g>
</g>
<g>
</g>
<g>
</g>
<g>
</g>
<g>
</g>
<g>
</g>
<g>
</g>
<g>
</g>
</svg>
